####
#
# OBJ File Generated by Meshlab
#
####
# Object calibration_axis.obj
#
# Vertices: 17
# Faces: 30
#
####
vn 1.570796 -1.570796 1.570796
v 200.000000 -10.000000 10.000000
vn 1.570796 1.570796 -1.570796
v 200.000000 10.000000 -10.000000
vn 1.570796 1.570796 1.570796
v 200.000000 10.000000 10.000000
vn 1.570796 -1.570796 -1.570796
v 200.000000 -10.000000 -10.000000
vn 3.141592 3.141592 3.141593
v 10.000000 10.000000 10.000000
vn 1.570796 -4.712389 1.570796
v 10.000000 -10.000000 10.000000
vn -1.570796 1.570796 1.570796
v -10.000000 200.000000 10.000000
vn 1.570796 1.570796 1.570796
v 10.000000 200.000000 10.000000
vn -4.712388 1.570796 1.570796
v -10.000000 10.000000 10.000000
vn 1.570796 1.570796 -4.712389
v 10.000000 10.000000 -10.000000
vn -1.570796 -1.570796 -1.570796
v -10.000000 -10.000000 -10.000000
vn -1.570796 1.570796 -1.570796
v -10.000000 200.000000 -10.000000
vn 1.570796 1.570796 -1.570796
v 10.000000 200.000000 -10.000000
vn -1.570796 -1.570796 1.570796
v -10.000000 -10.000000 190.000000
vn 1.570796 -1.570796 1.570796
v 10.000000 -10.000000 190.000000
vn -1.570796 1.570796 1.570796
v -10.000000 10.000000 190.000000
vn 1.570796 1.570796 1.570796
v 10.000000 10.000000 190.000000
# 17 vertices, 0 vertices normals

f 1//1 2//2 3//3
f 2//2 1//1 4//4
f 5//5 1//1 3//3
f 1//1 5//5 6//6
f 7//7 5//5 8//8
f 5//5 7//7 9//9
f 4//4 10//10 2//2
f 11//11 10//10 4//4
f 12//12 10//10 11//11
f 10//10 12//12 13//13
f 2//2 5//5 3//3
f 5//5 2//2 10//10
f 14//14 6//6 15//15
f 11//11 6//6 14//14
f 4//4 6//6 11//11
f 6//6 4//4 1//1
f 5//5 13//13 8//8
f 13//13 5//5 10//10
f 12//12 9//9 7//7
f 11//11 9//9 12//12
f 14//14 9//9 11//11
f 9//9 14//14 16//16
f 13//13 7//7 8//8
f 7//7 13//13 12//12
f 15//15 5//5 17//17
f 5//5 15//15 6//6
f 16//16 15//15 17//17
f 15//15 16//16 14//14
f 5//5 16//16 17//17
f 16//16 5//5 9//9
# 30 faces, 0 coords texture

# End of File
