vn -0.5773502691896258 0.5773502691896258 -0.5773502691896258
v -1.0 0.125 -1.0
vn -0.5773502691896258 0.5773502691896258 0.5773502691896258
v -1.0 0.125 1.0
vn -0.5773502691896258 -0.5773502691896258 -0.5773502691896258
v -1.0 -0.125 -1.0
vn -0.5773502691896258 -0.5773502691896258 0.5773502691896258
v -1.0 -0.125 1.0
vn 0.5773502691896258 0.5773502691896258 -0.5773502691896258
v 1.0 0.125 -1.0
vn 0.5773502691896258 0.5773502691896258 0.5773502691896258
v 1.0 0.125 1.0
vn 0.5773502691896258 -0.5773502691896258 -0.5773502691896258
v 1.0 -0.125 -1.0
vn 0.5773502691896258 -0.5773502691896258 0.5773502691896258
v 1.0 -0.125 1.0
f 3//3 4//4 2//2
f 2//2 1//1 3//3
f 5//5 1//1 2//2
f 2//2 6//6 5//5
f 8//8 7//7 5//5
f 5//5 6//6 8//8
f 3//3 7//7 8//8
f 8//8 4//4 3//3
f 3//3 1//1 5//5
f 5//5 7//7 3//3
f 2//2 4//4 8//8
f 8//8 6//6 2//2
